<svg id="Capa_1" enable-background="new 0 0 512 512" height="512" viewBox="0 0 512 512" width="512" xmlns="http://www.w3.org/2000/svg"><g><g><g><g><path d="m406.333 468.333c0-15.148 7.792-28.469 19.581-36.196h-317.097c-19.991 0-36.196 16.206-36.196 36.196 0 19.99 16.205 36.196 36.196 36.196h308.072c2.892 0 4.264-3.486 2.213-5.524-7.885-7.833-12.769-18.68-12.769-30.672z" fill="#f4fbff"/></g></g></g><g><g><g><path d="m406.333 468.333c0-15.148 7.792-28.469 19.581-36.196h-29.628c-11.789 7.727-19.581 21.048-19.581 36.196v.138c.023 7.166-5.625 13.049-12.792 13.049h-288.804c5.273 13.467 18.371 23.009 33.707 23.009h287.469 20.603c2.892 0 4.264-3.485 2.212-5.523-7.883-7.833-12.767-18.681-12.767-30.673z" fill="#e4f6ff"/></g></g></g><g><path d="m343.293 484.606-19.759-20.946c-2.752-2.918-7.392-2.918-10.145 0l-19.759 20.946c-2.475 2.623-6.883.872-6.883-2.734v-74.86h63.429v74.86c0 3.606-4.408 5.358-6.883 2.734z" fill="#e28086"/></g><g><g><path d="m332.021 407.013v65.645l11.272 11.949c2.475 2.623 6.883.872 6.883-2.734v-74.86z" fill="#dd636e"/></g></g><g><g><g><path d="m427.508 7.471h-325.209c-16.391 0-29.678 13.287-29.678 29.678v288.075 143.109c0-19.991 16.206-36.196 36.196-36.196h21.335 297.357c6.556 0 11.871-5.315 11.871-11.871v-400.924c-.001-6.556-5.316-11.871-11.872-11.871z" fill="#80b4fb"/></g></g></g><g><g><g><path d="m427.508 7.471h-31.657v323.436c0 30.775-24.948 55.723-55.723 55.723h-253.504-14.003v81.703c0-19.991 16.206-36.196 36.196-36.196h21.335 297.357c6.556 0 11.871-5.315 11.871-11.871v-400.924c-.001-6.556-5.316-11.871-11.872-11.871z" fill="#61a2f9"/></g></g></g><g><g><circle cx="256" cy="324.831" fill="#f4fbff" r="71.133"/></g></g><g><path d="m439.38 316.145c-4.127 0-7.471 3.344-7.471 7.471v96.649c0 2.426-1.974 4.4-4.4 4.4h-318.692c-10.478-.025-20.859 3.89-28.726 10.805v-398.321c0-12.245 9.962-22.207 22.207-22.207h22.276c4.127 0 7.471-3.344 7.471-7.471s-3.344-7.471-7.47-7.471h-22.276c-20.485 0-37.15 16.665-37.15 37.149v431.184c0 24.078 19.589 43.667 43.667 43.667h308.072c4.336 0 8.203-2.584 9.852-6.583 1.662-4.031.73-8.629-2.374-11.712-6.811-6.767-10.562-15.778-10.562-25.373 0-11.414 5.393-22.018 14.521-28.767 10.285-.432 18.526-8.911 18.526-19.301v-96.649c0-4.125-3.345-7.47-7.471-7.47zm-145.162 123.463h48.486v33.487l-13.736-14.562c-2.718-2.88-6.547-4.532-10.507-4.532s-7.789 1.652-10.507 4.532l-13.736 14.562zm-185.402 57.45c-15.839 0-28.725-12.886-28.725-28.725-.105-15.519 12.822-28.805 28.726-28.725h170.459v42.264c0 4.724 2.837 8.903 7.226 10.646 4.33 1.733 9.31.672 12.563-2.786l19.397-20.562 19.397 20.562c3.241 3.435 8.17 4.528 12.563 2.786 4.389-1.743 7.226-5.922 7.226-10.646v-42.264h50.121c-5.728 8.323-8.905 18.286-8.905 28.725 0 10.412 3.115 20.338 8.906 28.725z"/><path d="m427.508 0h-267.605c-4.127 0-7.471 3.344-7.471 7.471s3.344 7.471 7.471 7.471h267.605c2.426 0 4.4 1.974 4.4 4.4v269.537c0 4.127 3.344 7.471 7.471 7.471s7.471-3.344 7.471-7.471v-269.537c.001-10.666-8.676-19.342-19.342-19.342z"/><path d="m187.358 211.07c3.01 0 5.847-1.833 6.983-4.814l7.501-19.694h49.902l7.425 19.674c1.456 3.861 5.769 5.81 9.628 4.351 3.86-1.456 5.809-5.767 4.351-9.628l-37.137-98.405c-.025-.068-.053-.136-.08-.204-1.508-3.664-5.04-6.03-9.001-6.03-.003 0-.007 0-.01 0-3.965.004-7.497 2.378-8.998 6.048-.023.056-.046.113-.067.17l-37.477 98.401c-1.469 3.855.467 8.172 4.323 9.64.874.334 1.773.491 2.657.491zm39.549-90.319 19.197 50.869h-38.572z"/><path d="m164.73 110.517c4.127 0 7.471-3.344 7.471-7.471s-3.344-7.471-7.471-7.471h-40.155c-4.127 0-7.471 3.344-7.471 7.471v99.076c0 4.127 3.344 7.471 7.471 7.471s7.471-3.344 7.471-7.471v-43.005h29.494c4.127 0 7.471-3.344 7.471-7.471s-3.344-7.471-7.471-7.471h-29.494v-33.658z"/><path d="m344.958 93.145c-31.636 0-57.374 25.738-57.374 57.375s25.737 57.374 57.374 57.374c13.331 0 25.605-4.583 35.357-12.239l9.648 9.648c1.459 1.458 3.372 2.188 5.283 2.188 1.912 0 3.824-.73 5.283-2.188 2.917-2.918 2.917-7.648 0-10.567l-9.743-9.743c7.243-9.604 11.545-21.545 11.545-34.474.001-31.636-25.737-57.374-57.373-57.374zm0 99.806c-23.397 0-42.432-19.035-42.432-42.432 0-23.398 19.035-42.433 42.432-42.433 23.398 0 42.433 19.035 42.433 42.433 0 8.803-2.696 16.987-7.304 23.774l-11.486-11.486c-2.918-2.916-7.648-2.916-10.567 0-2.917 2.918-2.917 7.648 0 10.567l11.619 11.619c-6.963 5.001-15.488 7.958-24.695 7.958z"/><path d="m180.144 345.502c1.083 3.983 5.188 6.332 9.17 5.25s6.332-5.187 5.249-9.17c-1.477-5.431-2.225-11.067-2.225-16.752 0-35.103 28.558-63.662 63.662-63.662s63.662 28.558 63.662 63.662-28.559 63.663-63.662 63.663c-17.222 0-33.354-6.768-45.423-19.056-2.889-2.943-7.62-2.987-10.565-.095-2.944 2.891-2.986 7.621-.095 10.565 14.9 15.173 34.818 23.529 56.083 23.529 43.342 0 78.604-35.262 78.604-78.604s-35.262-78.605-78.604-78.605-78.604 35.262-78.604 78.604c0 7.008.924 13.964 2.748 20.671z"/><path d="m255.655 357.551c-3.911 0-7.082 3.171-7.082 7.082s3.171 7.082 7.082 7.082 7.082-3.171 7.082-7.082-3.171-7.082-7.082-7.082z"/><path d="m263.126 329.094c3.867-1.247 7.413-3.448 10.248-6.434 4.66-4.908 7.032-11.339 6.681-18.109-.661-12.719-11.158-22.883-23.9-23.138-12.379-.275-22.991 8.791-24.698 21.028-.157 1.118-.235 2.262-.235 3.399 0 4.127 3.344 7.471 7.471 7.471s7.471-3.344 7.471-7.471c0-.448.031-.897.091-1.334.662-4.746 4.799-8.226 9.6-8.155 4.947.1 9.022 4.041 9.278 8.974.137 2.637-.784 5.139-2.594 7.046-1.812 1.909-4.257 2.96-6.884 2.96-4.127 0-7.471 3.344-7.471 7.471v17.737c0 4.127 3.344 7.471 7.471 7.471s7.471-3.345 7.471-7.471z"/></g></g></svg>