<?xml version="1.0" encoding="iso-8859-1"?>
<!-- Generator: Adobe Illustrator 19.0.0, SVG Export Plug-In . SVG Version: 6.00 Build 0)  -->
<svg version="1.1" id="Capa_1" xmlns="http://www.w3.org/2000/svg" xmlns:xlink="http://www.w3.org/1999/xlink" x="0px" y="0px"
	 viewBox="0 0 512 512" style="enable-background:new 0 0 512 512;" xml:space="preserve">
<path style="fill:#82CD64;" d="M512,256c0,141.385-114.615,256-256,256c-71.516,0-136.17-29.337-182.618-76.618
	c0.458-2.061,0.701-4.195,0.701-6.382c0-16.543-13.783-30.075-31.219-31.17C15.791,357.228,0,308.461,0,256
	C0,114.615,114.615,0,256,0S512,114.615,512,256z"/>
<path style="fill:#6EA550;" d="M394.489,407.441c-28.43,22.925-41.666,46.892-76.989,56.059l-92.324-32.041
	c-5.228-1.781-8.022-7.463-6.241-12.691l99.213-291.213c1.417-4.159,5.383-6.906,9.775-6.77l74.498,2.304
	c1.997,0.062,3.929,0.72,5.548,1.89l60.409,43.657c3.561,2.574,5.025,7.171,3.608,11.33L394.489,407.441z"/>
<path style="fill:#FF5A5F;" d="M472.522,392.616c-19.518,30.868-45.453,57.268-75.932,77.336H320c-5.523,0-10-4.477-10-10v-307.65
	c0-4.394,2.868-8.273,7.069-9.561l71.261-21.844c1.91-0.585,3.951-0.585,5.861,0l71.261,21.844c4.201,1.288,7.069,5.167,7.069,9.561
	L472.522,392.616L472.522,392.616z"/>
<path style="fill:#D74646;" d="M391.261,440c-30.376,0-55-24.624-55-55s24.624-55,55-55s55,24.624,55,55S421.637,440,391.261,440z"
	/>
<path style="fill:#FFF5AF;" d="M386.764,70.086c-53.449-53.449-140.106-53.449-193.555,0
	c-40.014,40.014-50.069,98.641-30.169,148.012l-21.151,21.151c-7.6,7.6-7.782,19.783-0.591,27.631l-25.61,25.61
	c-1.867,1.867-1.867,4.893,0,6.76l6.474,6.474c5.46,5.46,5.962,14.354,0.765,20.065c-5.549,6.097-14.996,6.265-20.759,0.502
	l-6.76-6.76c-1.867-1.867-4.893-1.867-6.76,0l-6.76,6.76c-1.867,1.867-1.867,4.893,0,6.76l6.474,6.474
	c5.46,5.46,5.962,14.354,0.765,20.065c-5.549,6.097-14.996,6.265-20.759,0.502l-6.76-6.76c-1.867-1.867-4.893-1.867-6.76,0
	l-8.87,8.87c-0.819,0.819-1.312,1.906-1.389,3.061l-2.135,31.943c9.189,13.869,19.69,26.791,31.332,38.589l118.439-118.439
	c7.784,5.301,18.474,4.51,25.377-2.393l21.151-21.151c49.371,19.899,107.997,9.845,148.012-30.169
	C440.212,210.192,440.212,123.535,386.764,70.086z M359.157,156.048c-16.114,16.114-42.24,16.114-58.354,0s-16.114-42.24,0-58.354
	s42.24-16.114,58.354,0S375.271,139.934,359.157,156.048z"/>
<path style="fill:#FFE67D;" d="M160.599,211.556c-16.517-47.932-5.651-103.209,32.61-141.47s93.538-49.127,141.47-32.61
	c-42.028-0.41-86.793,17.356-121.759,52.321S160.189,169.528,160.599,211.556z M223.847,251.931L66.269,409.509
	c-1.867,1.867-1.867,4.893,0,6.76s4.893,1.867,6.76,0l157.578-157.578c1.867-1.867,1.867-4.893,0-6.76
	C228.741,250.064,225.714,250.064,223.847,251.931z"/>
<path style="fill:#1E233C;" d="M340.331,96.921c0,19.591,11.676,36.444,28.442,44.013c-1.995,5.515-5.195,10.693-9.617,15.114
	c-0.215,0.215-0.438,0.415-0.656,0.624c-21.83-11.02-36.812-33.626-36.812-59.751C321.689,59.961,351.65,30,388.61,30
	c36.959,0,66.921,29.961,66.921,66.921c0,14.531-4.633,27.978-12.502,38.948l-19.245-5.899c8.121-8.638,13.105-20.257,13.105-33.048
	c0-26.664-21.615-48.279-48.279-48.279C361.946,48.642,340.331,70.257,340.331,96.921z"/>
<g>
</g>
<g>
</g>
<g>
</g>
<g>
</g>
<g>
</g>
<g>
</g>
<g>
</g>
<g>
</g>
<g>
</g>
<g>
</g>
<g>
</g>
<g>
</g>
<g>
</g>
<g>
</g>
<g>
</g>
</svg>
