<?xml version="1.0" encoding="iso-8859-1"?>
<!-- Generator: Adobe Illustrator 19.0.0, SVG Export Plug-In . SVG Version: 6.00 Build 0)  -->
<svg version="1.1" id="Capa_1" xmlns="http://www.w3.org/2000/svg" xmlns:xlink="http://www.w3.org/1999/xlink" x="0px" y="0px"
	 viewBox="0 0 512.001 512.001" style="enable-background:new 0 0 512.001 512.001;" xml:space="preserve">
<path style="fill:#FF563C;" d="M506.745,261.257c0,137.602-111.343,250.744-250.744,250.744
	c-139.039,0-250.744-112.8-250.744-250.744c0-138.482,112.262-250.744,250.744-250.744
	C394.741,10.513,506.745,123.012,506.745,261.257z"/>
<path style="fill:#EBB410;" d="M445.827,378.819L309.629,190.898c-2.117-2.921-6.214-3.576-9.148-1.45l-33.908,24.575
	c-2.933,2.126-3.576,6.215-1.458,9.135l35.516,49.004c1.096,1.512,1.486,3.414,1.094,5.241l-5.816,26.807
	c-0.82,3.819,1.848,7.503,5.733,7.912l22.915,2.36c1.943,0.204,3.582,1.228,4.631,2.677l29.531,40.747
	c1.028,1.442,1.475,3.297,1.065,5.182l-4.881,22.522c-0.82,3.82,1.849,7.503,5.726,7.9l22.931,2.383
	c3.877,0.397,6.546,4.08,5.726,7.9l-4.863,22.475c-0.832,3.827,1.866,7.526,5.765,7.906l22.724,2.169
	c12,1.151,22.371-3.366,29.519-10.8c4.541-4.714,7.795-10.608,9.353-16.974C454.139,398.924,452.624,388.197,445.827,378.819z"/>
<path style="fill:#D49B00;" d="M295.56,193.015L451.785,408.57c-1.558,6.366-4.812,12.26-9.353,16.974L281.363,203.305
	L295.56,193.015z"/>
<path style="fill:#E3A600;" d="M180.499,57.439c-15.653,11.344-27.122,26.331-34.085,42.943
	c-13.263,31.65-10.186,69.244,11.423,99.059c32.954,45.468,96.526,55.603,141.994,22.649c27.747-20.11,42.344-51.617,42.017-83.455
	c-0.212-20.34-6.515-40.807-19.36-58.528C289.537,34.639,225.968,24.484,180.499,57.439z M196.893,80.059
	c15.55-11.271,37.293-7.8,48.563,7.75c11.27,15.55,7.808,37.305-7.741,48.574c-15.561,11.279-37.313,7.797-48.582-7.753
	S181.332,91.337,196.893,80.059z"/>
<path style="fill:#EBB410;" d="M180.499,57.439c-15.653,11.344-27.122,26.331-34.085,42.943c0.189,20.356,6.49,40.843,19.342,58.575
	c32.946,45.457,96.526,55.603,141.995,22.65c15.664-11.352,27.133-26.341,34.099-42.971c-0.212-20.34-6.515-40.807-19.36-58.528
	C289.537,34.639,225.968,24.484,180.499,57.439z M237.714,136.383c-15.561,11.279-37.313,7.797-48.582-7.753
	s-7.8-37.293,7.761-48.571c15.55-11.271,37.293-7.8,48.563,7.75C256.725,103.359,253.265,125.112,237.714,136.383z"/>
<path style="fill:#F2C230;" d="M229.907,232.919v232.086c0,11.582-5.068,21.156-12.635,27.586c-4.998,4.24-11.09,7.104-17.534,8.254
	c-10.15,1.825-21.199-0.604-30.239-8.577l-17.128-15.092c-2.934-2.597-2.948-7.174-0.028-9.786l17.128-15.345
	c2.906-2.612,2.906-7.159,0-9.757l-17.169-15.386c-2.906-2.597-2.906-7.146,0-9.757l17.169-15.372c2.906-2.597,2.906-7.146,0-9.757
	l-17.169-15.372c-2.906-2.612-2.906-7.159,0-9.757l17.169-15.372c2.906-2.611,2.906-7.159,0-9.771l-17.169-15.358
	c-2.906-2.611-2.906-7.159,0-9.771l20.44-18.293c1.39-1.25,2.19-3.018,2.19-4.885v-60.521c0-3.608,2.92-6.542,6.542-6.542h41.877
	C226.973,226.377,229.907,229.31,229.907,232.919z"/>
<path style="fill:#E3A600;" d="M217.272,226.377v266.214c-4.998,4.24-11.09,7.104-17.534,8.254V226.377H217.272z"/>
<path style="fill:#F7D139;" d="M203.668,49.077c-19.331,0-37.413,5.405-52.799,14.769c-29.312,17.843-48.883,50.09-48.883,86.913
	c0,56.155,45.527,101.668,101.681,101.668c34.269,0,64.578-16.945,82.997-42.916c11.765-16.593,18.671-36.865,18.671-58.752
	C305.336,94.604,259.823,49.077,203.668,49.077z M203.668,77.014c19.205,0,34.773,15.568,34.773,34.773
	s-15.568,34.788-34.773,34.788c-19.218,0-34.788-15.583-34.788-34.788S184.45,77.014,203.668,77.014z"/>
<path style="fill:#FFEB50;" d="M203.668,49.077c-19.331,0-37.413,5.405-52.799,14.769c-11.793,16.593-18.714,36.879-18.714,58.78
	c0,56.14,45.527,101.668,101.681,101.668c19.345,0,37.427-5.405,52.828-14.783c11.765-16.593,18.671-36.865,18.671-58.752
	C305.336,94.604,259.823,49.077,203.668,49.077z M203.668,146.575c-19.218,0-34.788-15.583-34.788-34.788
	s15.568-34.773,34.788-34.773c19.205,0,34.773,15.568,34.773,34.773S222.873,146.575,203.668,146.575z"/>
<path style="fill:#5AC3A5;" d="M336.74,98.802c-0.632,1.081-1.418,1.994-2.317,2.751c-3.507-8.605-8.868-17.644-12.088-21.647
	c6.247-18.644-2.906-35.925-12.845-43.211c-12.972-9.518-29.074-14.881-46.538-15.513c-23.936-0.842-40.978,2.33-62.317,21.577
	c-13.216,11.913-14.551,33.089-7.539,40.487c6.556,7.511,19.331,2.274,27.123-2.049c6.262,3.397,11.344,8.647,14.53,15.007
	c-0.814,1.081-1.868,2.008-3.103,2.723c-11.765,6.753-21.493,9.167-29.397,9.167c-8.395,0-14.712-2.723-19.218-5.854
	c0,0,0,0,0-0.014c-23.112-16.143-18.11-55.613,3.51-75.107c26.392-23.824,49.093-27.993,77.17-26.982
	c21.69,0.786,41.835,7.553,58.246,19.584C342.96,35.122,354.247,68.927,336.74,98.802z"/>
<g>
</g>
<g>
</g>
<g>
</g>
<g>
</g>
<g>
</g>
<g>
</g>
<g>
</g>
<g>
</g>
<g>
</g>
<g>
</g>
<g>
</g>
<g>
</g>
<g>
</g>
<g>
</g>
<g>
</g>
</svg>
