<svg id="Capa_1" enable-background="new 0 0 512 512" height="512" viewBox="0 0 512 512" width="512" xmlns="http://www.w3.org/2000/svg"><g><path d="m20.259 355.979c-13.043-30.716-20.259-64.504-20.259-99.979 0-141.163 115.324-256.262 256.487-256 96.62.18 180.68 53.886 224.108 133.047 0 127.068-103.009 230.077-230.077 230.077h-219.392c-4.723.001-9.021-2.797-10.867-7.145z" fill="#40c1fa"/><path d="m458.667 243.88c0 119.294-96.707 216-216 216s-216-96.707-216-216 96.707-216 216-216 216 96.707 216 216z" fill="#72d1fb"/><path d="m403.115 85.343c-1.8 11.19 5.628 21.782 16.761 23.903 4.914.936 6.771 6.994 3.225 10.523-8.033 7.995-8.25 20.93-.49 29.19 3.425 3.646 1.367 9.638-3.576 10.409-11.198 1.746-18.977 12.083-17.553 23.327.628 4.963-4.56 8.601-9.012 6.319-10.086-5.169-22.455-1.379-27.913 8.554-2.409 4.384-8.744 4.278-11.005-.185-5.121-10.111-17.356-14.314-27.61-9.486-4.526 2.131-9.589-1.679-8.795-6.618 1.8-11.19-5.628-21.782-16.761-23.903-4.914-.936-6.771-6.994-3.225-10.523 8.033-7.995 8.25-20.93.49-29.19-3.425-3.646-1.367-9.638 3.576-10.409 11.198-1.746 18.977-12.083 17.553-23.327-.628-4.963 4.56-8.601 9.012-6.319 10.086 5.169 22.455 1.379 27.913-8.554 2.409-4.384 8.744-4.278 11.005.185 5.121 10.111 17.356 14.314 27.61 9.486 4.526-2.131 9.589 1.678 8.795 6.618z" fill="#ffe89c"/><path d="m397.083 133.312c0 20.408-16.544 36.952-36.952 36.952s-36.952-16.544-36.952-36.952 16.544-36.952 36.952-36.952 36.952 16.544 36.952 36.952z" fill="#ffc14f"/><path d="m382.302 133.312c0 12.245-9.926 22.171-22.171 22.171s-22.171-9.926-22.171-22.171 9.926-22.171 22.171-22.171 22.171 9.926 22.171 22.171z" fill="#ffa90b"/><path d="m214.793 388.545c-.02-1.321-.031-2.644-.031-3.969 0-141.385 114.615-256 256-256 2.469 0 4.93.035 7.382.104 21.539 37.501 33.856 80.972 33.856 127.32 0 48.518-13.497 93.882-36.941 132.545z" fill="#6dc54a"/><path d="m380.984 402.417c3.011 23.306-58.507 38.825-62.481 8.073-15.57-120.5 55.342-232.24 164.586-272.783 3.282 6.287 6.311 12.728 9.072 19.309-77.941 52.407-124.031 145.919-111.177 245.401z" fill="#54a770"/><path d="m228.833 0h-17.666c-31.706 0-57.5 25.794-57.5 57.5s25.794 57.5 57.5 57.5h17.666c31.706 0 57.5-25.794 57.5-57.5s-25.794-57.5-57.5-57.5zm0 100h-17.666c-23.435 0-42.5-19.065-42.5-42.5s19.065-42.5 42.5-42.5h17.666c23.435 0 42.5 19.065 42.5 42.5s-19.065 42.5-42.5 42.5z" fill="#865b47"/><path d="m420 296.364v127.272c0 15.063-12.21 27.273-27.273 27.273s-27.273-12.21-27.273-27.273v-127.272c0-15.063 12.21-27.273 27.273-27.273s27.273 12.21 27.273 27.273zm-372.727-27.273c-15.063 0-27.273 12.21-27.273 27.273v59.003c10.23 24.267 24.093 46.626 40.909 66.397 3.677 4.324 13.637 5.678 13.637 1.872v-127.272c-.001-15.063-12.211-27.273-27.273-27.273z" fill="#865b47"/><path d="m379.091 228.181v116.98c0 59.695-38.973 112.392-96.049 129.88-46.925 14.378-94.784 28-101.496 25.963-47.547-14.43-89.238-42.322-120.637-79.239v-193.584c0-87.863 71.227-159.091 159.091-159.091 87.864.001 159.091 71.228 159.091 159.091z" fill="#e4ab45"/><path d="m101.818 460.38c-15.011-11.342-28.734-24.3-40.909-38.614v-193.584c0-87.863 71.227-159.091 159.091-159.091 6.931 0 13.758.444 20.454 1.303-78.202 10.038-138.636 76.855-138.636 157.788z" fill="#df9d28"/><path d="m266.715 66.062c67.032 17.83 113.285 79.12 113.285 148.483 0 30.125-24.421 54.545-54.545 54.545h-105.455-105.455c-30.124.001-54.545-24.42-54.545-54.545 0-69.363 46.253-130.654 113.285-148.483 14.844-3.948 30.515-6.062 46.715-6.062 16.2 0 31.871 2.114 46.715 6.062z" fill="#ffc14f"/><path d="m140.007 269.091h-25.461c-30.125 0-54.546-24.421-54.546-54.546 0-69.363 46.253-130.654 113.285-148.483 13.792-3.668 28.297-5.752 43.277-6.03-58.988 24.904-98.562 88.728-98.562 160.252 0 19.988 8.651 37.723 22.007 48.807z" fill="#e4ab45"/><path d="m150.833 163.545v210c0 8.284-6.716 15-15 15h-10c-8.284 0-15-6.716-15-15v-210c0-8.284 6.716-15 15-15h10c8.284 0 15 6.716 15 15zm163.334-15h-10c-8.284 0-15 6.716-15 15v210c0 8.284 6.716 15 15 15h10c8.284 0 15-6.716 15-15v-210c0-8.284-6.716-15-15-15z" fill="#9c6a53"/><path d="m151.5 261.045h-41.334c-7.444 0-13.5 6.056-13.5 13.5v54.667c0 7.444 6.056 13.5 13.5 13.5h41.334c7.444 0 13.5-6.056 13.5-13.5v-54.667c0-7.444-6.056-13.5-13.5-13.5zm-1.5 66.667h-38.334v-51.667h11.667v19.167c0 4.143 3.357 7.5 7.5 7.5s7.5-3.357 7.5-7.5v-19.167h11.667zm179.834-66.667h-41.334c-7.444 0-13.5 6.056-13.5 13.5v54.667c0 7.444 6.056 13.5 13.5 13.5h41.334c7.444 0 13.5-6.056 13.5-13.5v-54.667c0-7.444-6.056-13.5-13.5-13.5zm-1.5 66.667h-38.334v-51.667h11.667v19.167c0 4.143 3.357 7.5 7.5 7.5s7.5-3.357 7.5-7.5v-19.167h11.667z" fill="#fcf2b6"/><path d="m138.333 236.045c0 4.142-3.358 7.5-7.5 7.5s-7.5-3.358-7.5-7.5 3.358-7.5 7.5-7.5 7.5 3.358 7.5 7.5zm-7.5-37.5c-4.142 0-7.5 3.358-7.5 7.5s3.358 7.5 7.5 7.5 7.5-3.358 7.5-7.5-3.358-7.5-7.5-7.5zm0-30c-4.142 0-7.5 3.358-7.5 7.5s3.358 7.5 7.5 7.5 7.5-3.358 7.5-7.5-3.358-7.5-7.5-7.5zm178.334 60c-4.142 0-7.5 3.358-7.5 7.5s3.358 7.5 7.5 7.5 7.5-3.358 7.5-7.5-3.358-7.5-7.5-7.5zm0-30c-4.142 0-7.5 3.358-7.5 7.5s3.358 7.5 7.5 7.5 7.5-3.358 7.5-7.5-3.358-7.5-7.5-7.5zm0-30c-4.142 0-7.5 3.358-7.5 7.5s3.358 7.5 7.5 7.5 7.5-3.358 7.5-7.5-3.358-7.5-7.5-7.5z" fill="#634539"/><path d="m212.929 238.255-38.607-38.607c-3.905-3.905-3.905-10.237 0-14.142l38.607-38.607c3.905-3.905 10.237-3.905 14.142 0l38.607 38.607c3.905 3.905 3.905 10.237 0 14.142l-38.607 38.607c-3.905 3.905-10.237 3.905-14.142 0z" fill="#ffe89c"/><path d="m216.464 224.396-28.284-28.284c-1.953-1.953-1.953-5.118 0-7.071l28.284-28.284c1.953-1.953 5.118-1.953 7.071 0l28.284 28.284c1.953 1.953 1.953 5.118 0 7.071l-28.284 28.284c-1.952 1.953-5.118 1.953-7.071 0z" fill="#9c6a53"/><path d="m216.464 211.041-14.929-14.929c-1.953-1.953-1.953-5.118 0-7.071l14.929-14.929c1.953-1.953 5.118-1.953 7.071 0l14.929 14.929c1.953 1.953 1.953 5.118 0 7.071l-14.929 14.929c-1.952 1.953-5.118 1.953-7.071 0z" fill="#c1924d"/><path d="m202.165 462.197 155.564-155.563c29.289-29.29 76.777-29.29 106.066 0 17.443 17.443 24.498 41.341 21.165 64.005-42.054 83.826-128.788 141.361-228.96 141.361-25.894 0-50.89-3.845-74.448-10.994 2.733-14.218 9.604-27.799 20.613-38.809z" fill="#f44545"/><path d="m400.155 349.06-155.563 155.564c-2.169 2.169-4.177 4.438-6.025 6.792-19.699-1.325-38.787-4.878-57.015-10.409 2.733-14.219 9.604-27.8 20.613-38.809l155.563-155.563c29.289-29.29 76.777-29.29 106.066 0 7.542 7.542 13.142 16.292 16.8 25.626-26.912-10.548-58.692-4.948-80.439 16.799z" fill="#d63030"/><path d="m357.729 412.7c-29.289-29.289-29.289-76.777 0-106.066 29.289-29.289 76.777-29.289 106.066 0 29.289 29.289 29.289 76.777 0 106.066-29.289 29.289-76.777 29.289-106.066 0z" fill="#fc7979"/><path d="m453.188 402.093c-23.431 23.431-61.421 23.431-84.853 0s-23.431-61.421 0-84.853 61.421-23.431 84.853 0 23.432 61.422 0 84.853z" fill="#f44545"/><path d="m442.582 391.487c-17.574 17.574-46.066 17.574-63.64 0s-17.574-46.066 0-63.64 46.066-17.574 63.64 0c17.573 17.574 17.573 46.066 0 63.64z" fill="#fd9a9a"/><path d="m431.975 380.88c-11.716 11.716-30.711 11.716-42.426 0s-11.716-30.711 0-42.426 30.711-11.716 42.426 0 11.716 30.71 0 42.426z" fill="#d63030"/><path d="m421.368 370.273c-5.858 5.858-15.355 5.858-21.213 0s-5.858-15.355 0-21.213 15.355-5.858 21.213 0 5.858 15.355 0 21.213z" fill="#fd9a9a"/></g></svg>