<svg height="512" viewBox="0 0 60 60" width="512" xmlns="http://www.w3.org/2000/svg"><g id="Page-1" fill="none" fill-rule="evenodd"><g id="004---First-Aid-Kit" fill-rule="nonzero"><g id="color" transform="translate(1 1)"><path id="Shape" d="m57 3v33h-56v-33c0-1.65685425 1.34314575-3 3-3h50c1.6568542 0 3 1.34314575 3 3z" fill="#7f8e94"/><path id="Shape" d="m54 0h-3c1.6568542 0 3 1.34314575 3 3v33h3v-33c0-1.65685425-1.3431458-3-3-3z" fill="#545c60"/><path id="Shape" d="m58 37v16c0 2.7614237-2.2385763 5-5 5h-48c-1.32608245 0-2.59785201-.5267842-3.53553391-1.4644661-.93768189-.9376819-1.46446609-2.2094515-1.46446609-3.5355339v-16c0-.5522847.44771525-1 1-1h56c.5522847 0 1 .4477153 1 1z" fill="#f5f5f5"/><path id="Shape" d="m57 36h-3c.5522847 0 1 .4477153 1 1v16c0 2.7614237-2.2385763 5-5 5h3c2.7614237 0 5-2.2385763 5-5v-16c0-.2652165-.1053568-.5195704-.2928932-.7071068s-.4418903-.2928932-.7071068-.2928932z" fill="#cfd8dc"/><path id="Rectangle-path" d="m5 29h14v7h-14z" fill="#02a9f4"/><path id="Rectangle-path" d="m16 29h3v7h-3z" fill="#0377bc"/><path id="Shape" d="m19 25v4h-14v-4c0-2.209139 1.790861-4 4-4h6c2.209139 0 4 1.790861 4 4z" fill="#00bcd4"/><path id="Shape" d="m15 21h-3c2.209139 0 4 1.790861 4 4v4h3v-4c0-2.209139-1.790861-4-4-4z" fill="#00838f"/><path id="Shape" d="m39 30v2h-16v-2c0-1.6568542 1.3431458-3 3-3 1.1045695 0 2-.8954305 2-2v-2h6v2c0 1.1045695.8954305 2 2 2 1.6568542 0 3 1.3431458 3 3z" fill="#ffeb3a"/><path id="Shape" d="m38.12 27.88c-.5620694-.5627699-1.3246186-.8792998-2.12-.88-1.1045695 0-2-.8954305-2-2v-2h-3v2c0 1.1045695.8954305 2 2 2 1.6568542 0 3 1.3431458 3 3v2h3v-2c-.0007002-.7953814-.3172301-1.5579306-.88-2.12z" fill="#fdd834"/><rect id="Rectangle-path" fill="#f44335" height="5" rx="1" width="10" x="26" y="18"/><path id="Shape" d="m35 18h-3c.5522847 0 1 .4477153 1 1v3c0 .5522847-.4477153 1-1 1h3c.5522847 0 1-.4477153 1-1v-3c0-.5522847-.4477153-1-1-1z" fill="#c81e1e"/><path id="Shape" d="m34 46h-3v-3c0-.5522847-.4477153-1-1-1h-2c-.5522847 0-1 .4477153-1 1v3h-3c-.5522847 0-1 .4477153-1 1v2c0 .5522847.4477153 1 1 1h3v3c0 .5522847.4477153 1 1 1h2c.5522847 0 1-.4477153 1-1v-3h3c.5522847 0 1-.4477153 1-1v-2c0-.5522847-.4477153-1-1-1z" fill="#ef314c"/><path id="Shape" d="m15 18v3h-6v-3c0-.5522847.44771525-1 1-1h4c.5522847 0 1 .4477153 1 1z" fill="#f44335"/><path id="Shape" d="m14 17h-3c.5522847 0 1 .4477153 1 1v3h3v-3c0-.5522847-.4477153-1-1-1z" fill="#c81e1e"/><path id="Shape" d="m26 19v3c0 .5522847.4477153 1 1 1h1v2c0 1.1045695-.8954305 2-2 2-1.6568542 0-3 1.3431458-3 3v6h-4v-23h12v5h-4c-.5522847 0-1 .4477153-1 1z" fill="#a4c400"/><path id="Shape" d="m26 22v-3c0-.5522847.4477153-1 1-1h-3c-.5522847 0-1 .4477153-1 1v3c0 .5522847.4477153 1 1 1h1v2c0 1.1045695-.8954305 2-2 2-1.6568542 0-3 1.3431458-3 3v6h3v-6c0-1.6568542 1.3431458-3 3-3 1.1045695 0 2-.8954305 2-2v-2h-1c-.5522847 0-1-.4477153-1-1z" fill="#90ac00"/><path id="Rectangle-path" d="m28 13h3v5h-3z" fill="#90ac00"/><path id="Rectangle-path" d="m23 32h16v4h-16z" fill="#ff9801"/><path id="Rectangle-path" d="m36 32h3v4h-3z" fill="#f57c00"/><path id="Shape" d="m48 9v8h-1.18c-.4827608-.0097357-.9035264.3268768-1 .8l-.82 4.2c-.5522847 0-1 .4477153-1 1v4c-.5522847 0-1 .4477153-1 1v8h-4v-6c0-1.6568542-1.3431458-3-3-3-1.1045695 0-2-.8954305-2-2v-2h1c.5522847 0 1-.4477153 1-1v-3c0-.5522847-.4477153-1-1-1h-4v-5h-2v-4c0-.55228475.4477153-1 1-1h17c.5522847 0 1 .44771525 1 1z" fill="#02a9f4"/><path id="Shape" d="m47 8h-3c.5522847 0 1 .44771525 1 1v8h-1.18c-.4827608-.0097357-.9035264.3268768-1 .8l-.82 4.2c-.5522847 0-1 .4477153-1 1v4c-.5522847 0-1 .4477153-1 1v8h3v-8c0-.5522847.4477153-1 1-1v-4c0-.5522847.4477153-1 1-1l.84-4.2c.0964736-.4731232.5172392-.8097357 1-.8h1.16v-8c0-.55228475-.4477153-1-1-1z" fill="#0377bc"/><path id="Rectangle-path" d="m43 32h10v4h-10z" fill="#02a9f4"/><path id="Rectangle-path" d="m50 32h3v4h-3z" fill="#0377bc"/><path id="Shape" d="m53 28v4h-10v-4c0-.5522847.4477153-1 1-1h8c.5522847 0 1 .4477153 1 1z" fill="#00bcd4"/><path id="Shape" d="m52 27h-3c.5522847 0 1 .4477153 1 1v4h3v-4c0-.5522847-.4477153-1-1-1z" fill="#00838f"/><path id="Shape" d="m52 23v4h-8v-4c0-.5522847.4477153-1 1-1h6c.5522847 0 1 .4477153 1 1z" fill="#f44335"/><path id="Shape" d="m51 22h-3c.5522847 0 1 .4477153 1 1v4h3v-4c0-.5522847-.4477153-1-1-1z" fill="#c81e1e"/><path id="Shape" d="m51 22h-6l.84-4.2c.0964736-.4731232.5172392-.8097357 1-.8h2.36c.4827608-.0097357.9035264.3268768 1 .8z" fill="#f44335"/><path id="Shape" d="m50.16 17.8c-.0964736-.4731232-.5172392-.8097357-1-.8h-2.34c-.1094919-.0003147-.2180593.0200417-.32.06.3354136.1125478.586393.393949.66.74l.84 4.2h3z" fill="#c81e1e"/></g><g id="outline" fill="#000"><path id="Shape" d="m59 36.28v-32.28c0-2.209139-1.790861-4-4-4h-50c-2.209139 0-4 1.790861-4 4v32.28c-.61508907.3551046-.99571308 1.0097779-1 1.72v16c0 3.3137085 2.6862915 6 6 6h48c3.3137085 0 6-2.6862915 6-6v-16c-.0042869-.7102221-.3849109-1.3648954-1-1.72zm-54-34.28h50c1.1045695 0 2 .8954305 2 2v32h-2v-7c-.0042869-.7102221-.3849109-1.3648954-1-1.72v-3.28c-.0021778-.7693189-.4454324-1.4691946-1.14-1.8l-.72-3.59c-.188737-.9502315-1.0313839-1.6285624-2-1.61h-.14v-7c0-1.1045695-.8954305-2-2-2h-17c-1.1045695 0-2 .8954305-2 2v3h-11c-.5522847 0-1 .4477153-1 1s.4477153 1 1 1h1v7c-.5862044-.4597973-1.2706417-.7780606-2-.93v-2.07c0-1.1045695-.8954305-2-2-2h-4c-1.1045695 0-2 .8954305-2 2v2.1c-2.32833127.4752686-4.00048501 2.5236569-4 4.9v10h-2v-32c0-1.1045695.8954305-2 2-2zm10 19h-4v-2h4zm-5 2h6c1.6568542 0 3 1.3431458 3 3v3h-12v-3c0-1.6568542 1.34314575-3 3-3zm-3 8h12v5h-12zm14-4v-12h10v3h-3c-1.1045695 0-2 .8954305-2 2v3c0 1.1045695.8954305 2 2 2v1c0 .5522847-.4477153 1-1 1-2.209139 0-4 1.790861-4 4v5h-2zm16 2c1.1045695 0 2 .8954305 2 2v1h-14v-1c0-1.1045695.8954305-2 2-2 1.6568542 0 3-1.3431458 3-3v-1h4v1c0 1.6568542 1.3431458 3 3 3zm-9-6v-3h8v3zm-3 11h14v2h-14zm12-7c-.5522847 0-1-.4477153-1-1v-1c1.1045695 0 2-.8954305 2-2v-3c0-1.1045695-.8954305-2-2-2h-3v-3h1c.5522847 0 1-.4477153 1-1s-.4477153-1-1-1h-3v-3h17v7h-.18c-.9686161-.0185624-1.811263.6597685-2 1.61l-.72 3.59c-.6790076.3421311-1.1052913 1.0396863-1.1 1.8v3.28c-.6150891.3551046-.9957131 1.0097779-1 1.72v7h-2v-5c0-2.209139-1.790861-4-4-4zm8 2h8v3h-8zm1-2v-3h6v3zm1.22-5 .6-3h2.36l.6 3zm-2.22 12h8v2h-8zm13 20c0 2.209139-1.790861 4-4 4h-48c-2.209139 0-4-1.790861-4-4v-16h56z"/><path id="Shape" d="m25 52h2v2c0 1.1045695.8954305 2 2 2h2c1.1045695 0 2-.8954305 2-2v-2h2c1.1045695 0 2-.8954305 2-2v-2c0-1.1045695-.8954305-2-2-2h-2v-2c0-1.1045695-.8954305-2-2-2h-2c-1.1045695 0-2 .8954305-2 2v2h-2c-1.1045695 0-2 .8954305-2 2v2c0 1.1045695.8954305 2 2 2zm0-4h3c.5522847 0 1-.4477153 1-1v-3h2v3c0 .5522847.4477153 1 1 1h3v2h-3c-.5522847 0-1 .4477153-1 1v3h-2v-3c0-.5522847-.4477153-1-1-1h-3z"/></g></g></g></svg>