<svg id="Capa_1" enable-background="new 0 0 512 512" height="512" viewBox="0 0 512 512" width="512" xmlns="http://www.w3.org/2000/svg"><g><g clip-rule="evenodd" fill-rule="evenodd"><path d="m117.411 74.496h277.146v255.547h-277.146z" fill="#f4fbff"/><path d="m109.559 378.6h292.88v41.018h-292.88z" fill="#a87547"/><path d="m94.847 504.517h29.396c3.203 0 5.811-2.636 5.811-5.839v-419.108c0-3.204-2.608-5.812-5.811-5.812h-29.396c-3.203 0-5.811 2.608-5.811 5.812v419.107c0 3.204 2.608 5.84 5.811 5.84z" fill="#bf8e5e"/><path d="m387.726 504.517h29.396c3.204 0 5.839-2.636 5.839-5.839v-419.108c0-3.204-2.636-5.812-5.839-5.812h-29.396c-3.203 0-5.811 2.608-5.811 5.812v419.107c0 3.204 2.608 5.84 5.811 5.84z" fill="#bf8e5e"/><path d="m58.989 86.062h394.02c3.827 0 4.932-1.871 3.374-5.272l-31.324-68.004c-1.644-3.572-4.79-5.273-8.248-5.273h-321.652c-3.458 0-6.604 1.701-8.249 5.273l-31.323 68.003c-1.559 3.401-.453 5.273 3.402 5.273z" fill="#e28086"/><path d="m423.868 86.062h29.141c3.827 0 4.932-1.871 3.374-5.272l-31.324-68.004c-1.644-3.572-4.79-5.273-8.248-5.273h-29.112c3.458 0 6.605 1.701 8.249 5.273l31.323 68.004c1.558 3.4.452 5.272-3.403 5.272z" fill="#dd636e"/><path d="m278.28 201.745h68.684c3.203 0 5.839 2.608 5.839 5.812v85.579c0 3.203-2.636 5.839-5.839 5.839h-68.684c-3.203 0-5.84-2.636-5.84-5.839v-85.579c0-3.205 2.636-5.812 5.84-5.812zm-113.274-86.543h68.712c3.204 0 5.812 2.608 5.812 5.812v84.757c0 3.203-2.608 5.811-5.812 5.811h-68.712c-3.203 0-5.811-2.608-5.811-5.811v-84.757c0-3.204 2.607-5.812 5.811-5.812zm113.274 0h68.684c3.203 0 5.839 2.608 5.839 5.812v45.78c0 3.203-2.636 5.812-5.839 5.812h-68.684c-3.203 0-5.84-2.608-5.84-5.812v-45.78c0-3.204 2.636-5.812 5.84-5.812z" fill="#d3effb"/><path d="m317.852 201.745h29.112c3.203 0 5.839 2.608 5.839 5.812v85.579c0 3.203-2.636 5.839-5.839 5.839h-29.112c3.203 0 5.811-2.636 5.811-5.839v-85.579c0-3.205-2.608-5.812-5.811-5.812zm-113.246-86.543h29.112c3.204 0 5.812 2.608 5.812 5.812v84.757c0 3.203-2.608 5.811-5.812 5.811h-29.112c3.203 0 5.811-2.608 5.811-5.811v-84.757c0-3.204-2.608-5.812-5.811-5.812zm113.246 0h29.112c3.203 0 5.839 2.608 5.839 5.812v45.78c0 3.203-2.636 5.812-5.839 5.812h-29.112c3.203 0 5.811-2.608 5.811-5.812v-45.78c0-3.204-2.608-5.812-5.811-5.812z" fill="#b1e4f9"/><path d="m143.462 7.513v23.641c0 8.221-6.718 14.939-14.91 14.939-8.22 0-14.939-6.718-14.939-14.939v-23.641zm254.895 0v23.641c0 8.221-6.69 14.939-14.911 14.939-8.221 0-14.939-6.718-14.939-14.939v-23.641zm-63.724 0v23.641c0 8.221-6.718 14.939-14.911 14.939-8.221 0-14.939-6.718-14.939-14.939v-23.641zm-63.724 0v23.641c0 8.221-6.718 14.939-14.91 14.939-8.22 0-14.938-6.718-14.938-14.939v-23.641zm-63.723 0v23.641c0 8.221-6.718 14.939-14.911 14.939-8.221 0-14.939-6.718-14.939-14.939v-23.641z" fill="#ffc269"/><path d="m352.803 378.6h29.112v41.018h-29.112z" fill="#9e6737"/></g><path d="m81.525 470.529c0-4.139 3.373-7.483 7.512-7.483s7.483 3.345 7.483 7.483v26.476h26.051c0-134.477 0-268.955 0-403.432h-26.051v342.997c0 4.139-3.345 7.483-7.483 7.483-4.139 0-7.512-3.345-7.512-7.483v-342.997h-28.376c-5.386 0-9.099-5.641-6.775-10.63l35.972-78.124c1.078-2.806 3.799-4.819 7.002-4.819h333.302c2.806 0 5.527 1.645 6.775 4.366l36 78.123c.567 1.077.907 2.296.907 3.572 0 4.167-3.373 7.512-7.512 7.512h-28.375v26.476c0 4.139-3.345 7.512-7.483 7.512-4.139 0-7.512-3.373-7.512-7.512v-26.476h-26.022v403.432h26.022v-342.968c0-4.167 3.373-7.512 7.512-7.512s7.483 3.345 7.483 7.512v350.48c0 4.139-3.345 7.483-7.483 7.483h-41.046c-4.139 0-7.512-3.345-7.512-7.483v-77.387h-236.838v77.387c0 4.139-3.345 7.483-7.512 7.483h-41.018c-4.139 0-7.512-3.345-7.512-7.483v-33.988zm69.449-455.533v16.157c0 6.18-2.523 11.793-6.605 15.846-4.054 4.082-9.666 6.577-15.817 6.577-6.179 0-11.793-2.495-15.846-6.577-4.082-4.054-6.604-9.667-6.604-15.846v-16.157h-11.964l-29.282 63.582h382.257l-29.254-63.581h-11.991v16.157c0 6.18-2.523 11.793-6.576 15.846-4.054 4.082-9.667 6.577-15.846 6.577-6.18 0-11.792-2.495-15.846-6.577-4.054-4.054-6.576-9.667-6.576-15.846v-16.158h-18.879v16.157c0 6.18-2.523 11.793-6.577 15.846-4.053 4.082-9.666 6.577-15.846 6.577-6.179 0-11.792-2.495-15.846-6.577-4.054-4.054-6.577-9.667-6.577-15.846v-16.157h-18.879v16.157c0 6.18-2.522 11.793-6.577 15.846-4.082 4.082-9.666 6.577-15.846 6.577s-11.792-2.495-15.846-6.577c-4.053-4.054-6.577-9.667-6.577-15.846v-16.157h-18.879v16.157c0 6.18-2.523 11.793-6.576 15.846-4.082 4.082-9.695 6.577-15.846 6.577-6.18 0-11.793-2.495-15.846-6.577-4.082-4.054-6.577-9.667-6.577-15.846v-16.157zm-15.024 16.157v-16.157h-14.825v16.157c0 2.041.822 3.912 2.183 5.244 1.332 1.361 3.203 2.183 5.244 2.183 2.013 0 3.884-.822 5.216-2.183 1.36-1.332 2.182-3.203 2.182-5.244zm254.923 0v-16.157h-14.854v16.157c0 2.041.85 3.912 2.183 5.244 1.36 1.361 3.203 2.183 5.244 2.183s3.883-.822 5.244-2.183c1.332-1.332 2.183-3.203 2.183-5.244zm-63.723 0v-16.157h-14.854v16.157c0 2.041.822 3.912 2.184 5.244 1.36 1.361 3.203 2.183 5.244 2.183s3.884-.822 5.244-2.183c1.331-1.332 2.182-3.203 2.182-5.244zm-63.724 0v-16.157h-14.854v16.157c0 2.041.822 3.912 2.183 5.244 1.361 1.361 3.203 2.183 5.244 2.183 2.013 0 3.883-.822 5.216-2.183 1.36-1.332 2.211-3.203 2.211-5.244zm-63.724 0v-16.157h-14.854v16.157c0 2.041.822 3.912 2.183 5.244 1.332 1.361 3.203 2.183 5.244 2.183 2.012 0 3.883-.822 5.216-2.183 1.361-1.332 2.211-3.203 2.211-5.244zm-40.507 275.815c-4.422 0-7.994-3.6-7.994-7.994 0-4.422 3.572-8.022 7.994-8.022h55.475c4.422 0 7.994 3.6 7.994 8.022 0 4.394-3.572 7.994-7.994 7.994zm0-29.14c-4.422 0-7.994-3.572-7.994-7.994s3.572-7.994 7.994-7.994h80.335c4.422 0 8.022 3.572 8.022 7.994s-3.6 7.994-8.022 7.994zm0-29.113c-4.422 0-7.994-3.572-7.994-7.994s3.572-7.994 7.994-7.994h80.335c4.422 0 8.022 3.572 8.022 7.994s-3.6 7.994-8.022 7.994zm120.757-15.364c0 4.139-3.373 7.512-7.512 7.512s-7.483-3.373-7.483-7.512v-31.607c0-4.138 3.345-7.512 7.483-7.512h80.363c4.139 0 7.484 3.374 7.484 7.512v97.229c0 4.139-3.345 7.483-7.484 7.483h-80.363c-4.139 0-7.483-3.345-7.483-7.483v-31.635c0-4.139 3.345-7.512 7.483-7.512 4.139 0 7.512 3.373 7.512 7.512v24.124h65.339v-82.234h-65.339zm-7.512-125.661h80.363c4.139 0 7.484 3.373 7.484 7.512v57.403c0 4.166-3.345 7.512-7.484 7.512h-80.363c-4.139 0-7.483-3.345-7.483-7.512v-57.403c-.001-4.139 3.344-7.512 7.483-7.512zm72.851 14.996h-65.339v42.435h65.339zm-186.096-14.996h80.335c4.139 0 7.512 3.373 7.512 7.512v96.379c0 4.167-3.373 7.512-7.512 7.512h-80.335c-4.139 0-7.512-3.345-7.512-7.512v-96.379c-.001-4.139 3.372-7.512 7.512-7.512zm72.851 14.996h-65.368v81.412h65.368zm-94.48 214.868v33.534h101.425c4.167 0 7.512 3.345 7.512 7.512 0 4.139-3.345 7.484-7.512 7.484h-101.425v26.051h236.838v-26.051h-101.426c-4.139 0-7.512-3.345-7.512-7.484 0-4.167 3.373-7.512 7.512-7.512h101.425v-33.534zm236.838-14.995v-228.986h-236.838v228.986z"/></g></svg>