<svg id="Capa_1" enable-background="new 0 0 510.369 510.369" height="512" viewBox="0 0 510.369 510.369" width="512" xmlns="http://www.w3.org/2000/svg"><g><path d="m426.435 192.415h-21.41v-6.7h4.32c11.888 0 21.56-9.671 21.56-21.56v-17.8c0-11.888-9.672-21.56-21.56-21.56h-250.55c-4.143 0-7.5 3.358-7.5 7.5s3.357 7.5 7.5 7.5h250.55c3.617 0 6.56 2.943 6.56 6.56v17.8c0 3.617-2.942 6.56-6.56 6.56h-309.16c-3.611 0-6.55-2.942-6.55-6.56v-17.8c0-3.617 2.938-6.56 6.55-6.56h23.61c4.143 0 7.5-3.358 7.5-7.5s-3.357-7.5-7.5-7.5h-23.61c-11.883 0-21.55 9.672-21.55 21.56v17.8c0 11.888 9.667 21.56 21.55 21.56h4.33v6.7h-20.58c-10.289 0-18.66 8.371-18.66 18.66v11.08c0 10.289 8.371 18.66 18.66 18.66h21.265c3.545 29.811 20.711 55.498 45.083 70.647l-65.837 169.379c-1.618 4.152-1.521 8.687.274 12.766 1.795 4.078 5.07 7.21 9.218 8.818l16.361 6.357c1.963.765 4.012 1.147 6.057 1.147 2.279 0 4.555-.474 6.704-1.42 4.072-1.792 7.205-5.063 8.824-9.217l32-82.328h169.253l8.586 22.088c-5.321 7.398-8.468 16.46-8.468 26.249 0 24.851 20.217 45.068 45.067 45.068s45.067-20.217 45.067-45.068c0-20.972-14.399-38.643-33.83-43.649l-40.653-104.604c29.789-13.814 51.404-42.363 55.432-76.234h22.095c10.289 0 18.66-8.371 18.66-18.66v-11.08c.002-10.288-8.369-18.659-18.658-18.659zm-346.161 29.74v-11.08c0-2.018 1.642-3.66 3.66-3.66h20.58v18.4h-20.58c-2.018-.001-3.66-1.642-3.66-3.66zm37.632 271.696c-.209.537-.598.802-.888.929-.287.126-.74.233-1.278.024l-16.375-6.362c-.527-.205-.788-.59-.915-.877-.127-.289-.235-.745-.025-1.283l65.251-167.876c6.38 2.694 13.108 4.719 20.095 5.993zm51.809-91.887 8.124-20.9h141.344l8.124 20.9zm238.676 63.337c0 16.58-13.488 30.068-30.067 30.068s-30.067-13.488-30.067-30.068c0-16.579 13.488-30.067 30.067-30.067s30.067 13.488 30.067 30.067zm-35.35-44.747c-7.188.843-13.863 3.379-19.614 7.205l-39.63-101.949c7.258-.402 14.306-1.604 21.053-3.528zm-64.646-109.59h-22.97c-4.143 0-7.5 3.358-7.5 7.5s3.357 7.5 7.5 7.5h12.339l15.588 40.1h-129.684l15.596-40.124c.623.012 1.245.024 1.871.024h49.29c4.143 0 7.5-3.358 7.5-7.5s-3.357-7.5-7.5-7.5h-49.29c-45.006 0-81.62-36.619-81.62-81.63v-43.62h270.51v43.62c-.001 45.011-36.62 81.63-81.63 81.63zm121.7-88.809c0 2.018-1.642 3.66-3.66 3.66h-21.41v-18.4h21.41c2.019 0 3.66 1.642 3.66 3.66z"/><path d="m218.274 102.156c1.107 0 2.232-.247 3.295-.767 3.719-1.823 5.257-6.316 3.434-10.035-3.018-6.159-6.052-14.532-3.366-19.444.67-1.224 1.608-2.098 2.908-3.308 2.151-2.002 5.097-4.744 6.646-9.558 2.48-7.711.164-16.467-6.888-26.025-2.459-3.333-7.154-4.041-10.487-1.583-3.334 2.459-4.042 7.155-1.583 10.488 3.91 5.3 5.572 9.749 4.679 12.524-.324 1.008-.897 1.601-2.586 3.173-1.79 1.665-4.017 3.738-5.85 7.091-4.631 8.468-3.603 19.652 3.058 33.242 1.302 2.658 3.967 4.202 6.74 4.202z"/><path d="m256.733 102.156c1.107 0 2.232-.246 3.295-.767 3.72-1.823 5.257-6.316 3.434-10.036-7.286-14.867-8.985-26.055-5.051-33.251 1.325-2.423 3.122-4.096 5.203-6.033 3.127-2.91 7.019-6.532 9.065-12.895 3.373-10.48.036-22.636-9.917-36.127-2.459-3.333-7.154-4.041-10.487-1.583-3.334 2.459-4.042 7.155-1.583 10.488 6.828 9.256 9.493 17.081 7.708 22.629-.812 2.523-2.274 3.967-5.005 6.509-2.52 2.345-5.655 5.263-8.145 9.816-6.409 11.721-4.814 27.55 4.742 47.049 1.303 2.657 3.969 4.201 6.741 4.201z"/><path d="m290.049 102.156c1.107 0 2.232-.247 3.295-.767 3.719-1.823 5.257-6.316 3.434-10.035-3.018-6.159-6.052-14.532-3.367-19.443.67-1.224 1.608-2.098 2.908-3.308 2.151-2.002 5.098-4.744 6.646-9.559 2.481-7.712.164-16.468-6.887-26.025-2.459-3.333-7.153-4.041-10.487-1.583-3.334 2.459-4.042 7.155-1.583 10.488 3.91 5.3 5.571 9.748 4.678 12.525-.324 1.008-.897 1.601-2.586 3.173-1.789 1.665-4.016 3.737-5.851 7.091-4.629 8.468-3.6 19.652 3.06 33.241 1.301 2.658 3.966 4.202 6.74 4.202z"/></g></svg>